<?xml version="1.0" encoding="iso-8859-1"?>
<!-- Generator: Adobe Illustrator 18.1.1, SVG Export Plug-In . SVG Version: 6.00 Build 0)  -->
<svg version="1.1" id="Capa_1" xmlns="http://www.w3.org/2000/svg" xmlns:xlink="http://www.w3.org/1999/xlink" x="0px" y="0px"
	 viewBox="0 0 112.3 112.3" style="enable-background:new 0 0 112.3 112.3;" xml:space="preserve">
<g>
	<g>
		<path style="fill:#010002;" d="M107.435,31.472c0.959-1.317,1.6-2.97,1.732-4.831c0.125-1.804-0.218-3.543-0.991-5.021
			c-0.744-1.421-1.886-2.466-3.207-3.121c-0.809-3.436-3.275-5.977-6.474-6.338c-1.51-3.131-4.245-5.2-7.437-5.2l-0.401,0.011
			c-0.766,0.043-1.482,0.24-2.172,0.501c-1.725-2.537-4.266-4.148-7.154-4.148l-0.429,0.011c-1.571,0.086-2.981,0.659-4.205,1.532
			c-2.523-3.436-6.17-5.361-9.967-4.756c-6.17,0.991-9.838,7.859-8.536,15.972c0.666,4.126,2.548,7.566,5.046,9.82
			c-0.905,1.313-1.557,2.759-1.836,4.359c-1.56,8.983,4.996,14.53,9.334,18.195c0.973,0.827,1.904,1.6,2.648,2.369
			c2.659,2.745,3.124,7.312,1.045,10.178c-0.147,0.204-0.39,0.49-0.691,0.852c-3.067,3.711-11.23,13.567-8.042,24.279
			c1.814,6.116,6.048,9.91,12.587,11.27c1.832,0.379,3.586,0.573,5.222,0.573c9.878,0,15.969-6.854,16.298-18.331
			c0.129-4.391,0.816-7.831,2.176-10.865C106.447,58.649,113.683,42.172,107.435,31.472z M102.17,23.137
			c1.027,0.072,1.757,1.474,1.643,3.128c-0.118,1.653-1.041,2.938-2.065,2.867c-1.02-0.072-1.757-1.474-1.639-3.128
			S101.15,23.065,102.17,23.137z M97.829,17.457c1.278,0.089,2.201,1.843,2.054,3.915c-0.147,2.076-1.303,3.683-2.588,3.59
			c-1.278-0.089-2.197-1.847-2.047-3.915C95.395,18.971,96.551,17.367,97.829,17.457z M90.954,12.328
			c1.732-0.093,3.264,2.104,3.418,4.907c0.15,2.802-1.127,5.154-2.867,5.247c-1.729,0.093-3.257-2.101-3.411-4.907
			C87.941,14.773,89.222,12.425,90.954,12.328z M81.195,8.696c2.137-0.115,4.019,2.591,4.209,6.041
			c0.19,3.457-1.392,6.349-3.525,6.467c-2.137,0.118-4.015-2.588-4.205-6.041C77.483,11.709,79.062,8.814,81.195,8.696z
			 M63.494,15.234c-0.795-4.932,1.034-9.33,4.087-9.82c3.046-0.487,6.159,3.114,6.95,8.045c0.795,4.932-1.031,9.33-4.083,9.82
			C67.405,23.77,64.284,20.166,63.494,15.234z M97.067,66.627c-1.836,4.083-2.498,8.414-2.627,12.873
			c-0.136,4.753-1.568,15.461-15.06,12.655c-4.058-0.845-7.161-2.913-8.536-7.541c-2.713-9.115,6.406-18.345,7.934-20.446
			c3.668-5.06,2.913-12.476-1.532-17.071c-3.844-3.973-11.882-8.256-10.554-15.915c1.6-9.194,25.127-9.985,35.008,1.417
			C108.405,40.34,101.576,56.384,97.067,66.627z"/>
		<path style="fill:#010002;" d="M45.571,14.429c-3.786-0.608-7.433,1.317-9.964,4.756c-1.228-0.877-2.638-1.449-4.216-1.535
			l-0.422-0.011c-2.888,0-5.426,1.607-7.154,4.151c-0.691-0.265-1.414-0.462-2.183-0.508l-0.39-0.011
			c-3.192,0-5.923,2.069-7.433,5.2c-3.178,0.361-5.633,2.87-6.46,6.281c-0.827,0.401-1.585,0.97-2.219,1.7
			c-1.446,1.668-2.172,4.041-1.997,6.514c0.132,1.857,0.773,3.504,1.729,4.821c-6.242,10.697,0.991,27.178,5.472,37.36
			c1.349,2.996,2.033,6.431,2.162,10.826c0.336,11.477,6.431,18.327,16.302,18.327c1.632,0,3.389-0.193,5.222-0.576
			c6.531-1.36,10.765-5.146,12.587-11.263c3.189-10.708-4.967-20.564-8.038-24.275c-0.301-0.365-0.544-0.651-0.694-0.855
			c-2.079-2.87-1.614-7.44,1.045-10.185c0.744-0.769,1.678-1.542,2.652-2.369c4.338-3.668,10.89-9.216,9.326-18.195
			c-0.276-1.596-0.927-3.046-1.832-4.355c2.498-2.255,4.381-5.694,5.039-9.817c0.544-3.357,0.211-6.728-0.941-9.495
			C51.669,17.328,48.906,14.966,45.571,14.429z M31.101,23.011c2.137,0.118,3.715,3.013,3.525,6.467
			c-0.19,3.457-2.072,6.159-4.209,6.041c-2.137-0.115-3.711-3.01-3.522-6.467C27.086,25.602,28.965,22.897,31.101,23.011z
			 M21.342,26.644c1.729,0.097,3.013,2.444,2.86,5.247c-0.15,2.806-1.682,5-3.411,4.907c-1.736-0.093-3.017-2.444-2.863-5.247
			C18.082,28.748,19.613,26.551,21.342,26.644z M14.467,31.772c1.281-0.089,2.437,1.514,2.584,3.59
			c0.147,2.069-0.773,3.822-2.051,3.915c-1.281,0.093-2.437-1.514-2.588-3.59C12.266,33.619,13.186,31.865,14.467,31.772z
			 M10.126,37.456c1.02-0.072,1.947,1.21,2.061,2.863c0.118,1.653-0.619,3.056-1.639,3.128s-1.943-1.21-2.061-2.867
			C8.365,38.93,9.102,37.527,10.126,37.456z M35.052,61.416c-4.445,4.592-5.2,12.011-1.532,17.071
			c1.525,2.101,10.647,11.331,7.934,20.446c-1.378,4.624-4.481,6.696-8.536,7.541c-13.496,2.806-14.924-7.902-15.063-12.655
			c-0.125-4.459-0.791-8.79-2.627-12.873c-4.509-10.243-11.338-26.29-4.635-34.024c9.885-11.406,33.412-10.611,35.008-1.417
			C46.938,53.16,38.896,57.443,35.052,61.416z M48.802,29.55c-0.791,4.932-3.908,8.536-6.954,8.045
			c-3.046-0.49-4.874-4.889-4.083-9.82c0.795-4.932,3.908-8.532,6.954-8.045C47.768,20.22,49.6,24.618,48.802,29.55z"/>
	</g>
</g>
<g>
</g>
<g>
</g>
<g>
</g>
<g>
</g>
<g>
</g>
<g>
</g>
<g>
</g>
<g>
</g>
<g>
</g>
<g>
</g>
<g>
</g>
<g>
</g>
<g>
</g>
<g>
</g>
<g>
</g>
</svg>
